<svg width="1782" height="305" viewBox="0 0 1782 305" fill="none" xmlns="http://www.w3.org/2000/svg">
<rect y="88" width="27" height="217" fill="black"/>
<rect x="66" y="67" width="29" height="238" fill="black"/>
<rect x="95" y="119" width="499" height="186" fill="black"/>
<rect x="71" y="55" width="17" height="250" fill="black"/>
<rect x="75" y="47" width="9" height="258" fill="black"/>
<rect x="3" y="107" width="27" height="198" fill="black"/>
<rect x="27" y="119" width="27" height="186" fill="black"/>
<rect x="36" y="107" width="31" height="198" fill="black"/>
<rect x="47" y="102" width="14" height="203" fill="black"/>
<rect x="49" y="99" width="10" height="206" fill="black"/>
<rect x="32" y="117" width="27" height="188" fill="black"/>
<rect x="109" y="61" width="33" height="188" fill="black"/>
<rect x="100" y="85" width="33" height="188" fill="black"/>
<rect x="93" y="117" width="33" height="149" fill="black"/>
<rect x="118" y="107" width="33" height="188" fill="black"/>
<rect x="146" y="117" width="33" height="152" fill="black"/>
<rect x="155" y="73" width="33" height="152" fill="black"/>
<rect x="155" y="73" width="33" height="152" fill="black"/>
<rect x="224" y="68" width="37" height="152" fill="black"/>
<rect x="358" y="34" width="26" height="152" fill="black"/>
<rect x="363" y="18" width="15" height="155" fill="black"/>
<rect x="393" y="68" width="17" height="155" fill="black"/>
<rect x="450" y="53" width="29" height="155" fill="black"/>
<rect x="419" y="61" width="17" height="155" fill="black"/>
<rect x="484" y="77" width="17" height="155" fill="black"/>
<rect x="498" y="98" width="17" height="155" fill="black"/>
<rect x="514" y="107" width="71" height="155" fill="black"/>
<rect x="532" y="67" width="53" height="155" fill="black"/>
<rect x="551" y="36" width="32" height="155" fill="black"/>
<rect x="551" y="36" width="32" height="155" fill="black"/>
<rect x="556" y="29" width="23" height="155" fill="black"/>
<rect x="559" y="20" width="20" height="155" fill="black"/>
<rect x="454" y="46" width="20" height="155" fill="black"/>
<path d="M455 39.4655L474 28V194H455V39.4655Z" fill="black"/>
<rect x="415" y="71" width="26" height="155" fill="black"/>
<rect x="369" width="3" height="155" fill="black"/>
<rect x="360" y="21" width="21" height="7" fill="black"/>
<rect x="301" y="55" width="33" height="152" fill="black"/>
<rect x="285" y="68" width="33" height="152" fill="black"/>
<rect x="317" y="79" width="33" height="152" fill="black"/>
<rect x="317" y="107" width="124" height="124" fill="black"/>
<path d="M306 29.5L328 39V191H306V29.5Z" fill="black"/>
<path d="M306 29.5L328 39V191H306V29.5Z" fill="black"/>
<path d="M306 29.5L328 39V191H306V29.5Z" fill="black"/>
<rect x="170" y="99" width="33" height="152" fill="black"/>
<rect x="244" y="97" width="33" height="152" fill="black"/>
<rect x="196" y="110" width="81" height="152" fill="black"/>
<path d="M160 59L181 50.5V211H160V59Z" fill="black"/>
<path d="M160 59L181 50.5V211H160V59Z" fill="black"/>
<path d="M166 55.0498L174 47V199H166V55.0498Z" fill="black"/>
<path d="M166 55.0498L174 47V199H166V55.0498Z" fill="black"/>
<rect x="594" y="88" width="27" height="217" fill="black"/>
<rect x="660" y="67" width="29" height="238" fill="black"/>
<rect x="689" y="119" width="499" height="186" fill="black"/>
<rect x="665" y="55" width="17" height="250" fill="black"/>
<rect x="669" y="47" width="9" height="258" fill="black"/>
<rect x="597" y="107" width="27" height="198" fill="black"/>
<rect x="621" y="119" width="27" height="186" fill="black"/>
<rect x="630" y="107" width="31" height="198" fill="black"/>
<rect x="641" y="102" width="14" height="203" fill="black"/>
<rect x="643" y="99" width="10" height="206" fill="black"/>
<rect x="626" y="117" width="27" height="188" fill="black"/>
<rect x="703" y="61" width="33" height="188" fill="black"/>
<rect x="694" y="85" width="33" height="188" fill="black"/>
<rect x="687" y="117" width="33" height="149" fill="black"/>
<rect x="712" y="107" width="33" height="188" fill="black"/>
<rect x="740" y="117" width="33" height="152" fill="black"/>
<rect x="749" y="73" width="33" height="152" fill="black"/>
<rect x="749" y="73" width="33" height="152" fill="black"/>
<rect x="818" y="68" width="37" height="152" fill="black"/>
<rect x="952" y="34" width="26" height="152" fill="black"/>
<rect x="957" y="18" width="15" height="155" fill="black"/>
<rect x="987" y="68" width="17" height="155" fill="black"/>
<rect x="1044" y="53" width="29" height="155" fill="black"/>
<rect x="1013" y="61" width="17" height="155" fill="black"/>
<rect x="1078" y="77" width="17" height="155" fill="black"/>
<rect x="1092" y="98" width="17" height="155" fill="black"/>
<rect x="1108" y="107" width="71" height="155" fill="black"/>
<rect x="1126" y="67" width="53" height="155" fill="black"/>
<rect x="1145" y="36" width="32" height="155" fill="black"/>
<rect x="1145" y="36" width="32" height="155" fill="black"/>
<rect x="1150" y="29" width="23" height="155" fill="black"/>
<rect x="1153" y="20" width="20" height="155" fill="black"/>
<rect x="1048" y="46" width="20" height="155" fill="black"/>
<path d="M1049 39.4655L1068 28V194H1049V39.4655Z" fill="black"/>
<rect x="1009" y="71" width="26" height="155" fill="black"/>
<rect x="963" width="3" height="155" fill="black"/>
<rect x="954" y="21" width="21" height="7" fill="black"/>
<rect x="895" y="55" width="33" height="152" fill="black"/>
<rect x="879" y="68" width="33" height="152" fill="black"/>
<rect x="911" y="79" width="33" height="152" fill="black"/>
<rect x="911" y="107" width="124" height="124" fill="black"/>
<path d="M900 29.5L922 39V191H900V29.5Z" fill="black"/>
<path d="M900 29.5L922 39V191H900V29.5Z" fill="black"/>
<path d="M900 29.5L922 39V191H900V29.5Z" fill="black"/>
<rect x="764" y="99" width="33" height="152" fill="black"/>
<rect x="838" y="97" width="33" height="152" fill="black"/>
<rect x="790" y="110" width="81" height="152" fill="black"/>
<path d="M754 59L775 50.5V211H754V59Z" fill="black"/>
<path d="M754 59L775 50.5V211H754V59Z" fill="black"/>
<path d="M760 55.0498L768 47V199H760V55.0498Z" fill="black"/>
<path d="M760 55.0498L768 47V199H760V55.0498Z" fill="black"/>
<rect x="1188" y="88" width="27" height="217" fill="black"/>
<rect x="1254" y="67" width="29" height="238" fill="black"/>
<rect x="1283" y="119" width="499" height="186" fill="black"/>
<rect x="1259" y="55" width="17" height="250" fill="black"/>
<rect x="1263" y="47" width="9" height="258" fill="black"/>
<rect x="1191" y="107" width="27" height="198" fill="black"/>
<rect x="1215" y="119" width="27" height="186" fill="black"/>
<rect x="1224" y="107" width="31" height="198" fill="black"/>
<rect x="1235" y="102" width="14" height="203" fill="black"/>
<rect x="1237" y="99" width="10" height="206" fill="black"/>
<rect x="1220" y="117" width="27" height="188" fill="black"/>
<rect x="1297" y="61" width="33" height="188" fill="black"/>
<rect x="1288" y="85" width="33" height="188" fill="black"/>
<rect x="1281" y="117" width="33" height="149" fill="black"/>
<rect x="1306" y="107" width="33" height="188" fill="black"/>
<rect x="1334" y="117" width="33" height="152" fill="black"/>
<rect x="1343" y="73" width="33" height="152" fill="black"/>
<rect x="1343" y="73" width="33" height="152" fill="black"/>
<rect x="1412" y="68" width="37" height="152" fill="black"/>
<rect x="1546" y="34" width="26" height="152" fill="black"/>
<rect x="1551" y="18" width="15" height="155" fill="black"/>
<rect x="1581" y="68" width="17" height="155" fill="black"/>
<rect x="1638" y="53" width="29" height="155" fill="black"/>
<rect x="1607" y="61" width="17" height="155" fill="black"/>
<rect x="1672" y="77" width="17" height="155" fill="black"/>
<rect x="1686" y="98" width="17" height="155" fill="black"/>
<rect x="1702" y="107" width="71" height="155" fill="black"/>
<rect x="1720" y="67" width="53" height="155" fill="black"/>
<rect x="1739" y="36" width="32" height="155" fill="black"/>
<rect x="1739" y="36" width="32" height="155" fill="black"/>
<rect x="1744" y="29" width="23" height="155" fill="black"/>
<rect x="1747" y="20" width="20" height="155" fill="black"/>
<rect x="1642" y="46" width="20" height="155" fill="black"/>
<path d="M1643 39.4655L1662 28V194H1643V39.4655Z" fill="black"/>
<rect x="1603" y="71" width="26" height="155" fill="black"/>
<rect x="1557" width="3" height="155" fill="black"/>
<rect x="1548" y="21" width="21" height="7" fill="black"/>
<rect x="1489" y="55" width="33" height="152" fill="black"/>
<rect x="1473" y="68" width="33" height="152" fill="black"/>
<rect x="1505" y="79" width="33" height="152" fill="black"/>
<rect x="1505" y="107" width="124" height="124" fill="black"/>
<path d="M1494 29.5L1516 39V191H1494V29.5Z" fill="black"/>
<path d="M1494 29.5L1516 39V191H1494V29.5Z" fill="black"/>
<path d="M1494 29.5L1516 39V191H1494V29.5Z" fill="black"/>
<rect x="1358" y="99" width="33" height="152" fill="black"/>
<rect x="1432" y="97" width="33" height="152" fill="black"/>
<rect x="1384" y="110" width="81" height="152" fill="black"/>
<path d="M1348 59L1369 50.5V211H1348V59Z" fill="black"/>
<path d="M1348 59L1369 50.5V211H1348V59Z" fill="black"/>
<path d="M1354 55.0498L1362 47V199H1354V55.0498Z" fill="black"/>
<path d="M1354 55.0498L1362 47V199H1354V55.0498Z" fill="black"/>
</svg>
